<svg width="107" height="35" viewBox="0 0 107 35" fill="none" xmlns="http://www.w3.org/2000/svg">
<rect width="107" height="35" rx="17.5" fill="#080809"/>
<g clip-path="url(#clip0_1722_668)">
<path d="M28.507 17.0018L18.4634 26.673C17.9931 26.3516 17.7139 25.817 17.7188 25.2473V8.75626C17.7139 8.18663 17.9931 7.65199 18.4634 7.33057L28.507 17.0018Z" fill="#2196F3"/>
<path d="M32.0217 13.6236L28.5074 17.0018L18.4639 7.33053C18.5017 7.3012 18.5411 7.27392 18.5819 7.2488C19.1127 6.92708 19.7757 6.9167 20.3164 7.22156L32.0217 13.6236Z" fill="#4CAF50"/>
<path d="M36.2811 17.0017C36.2877 17.6447 35.9382 18.2387 35.373 18.5454L32.0221 20.3798L28.5078 17.0017L32.0221 13.6235L35.373 15.4579C35.9382 15.7646 36.2877 16.3586 36.2811 17.0017Z" fill="#F0BB1F"/>
<path d="M32.0217 20.3798L20.3164 26.7819C19.7745 27.0821 19.114 27.0717 18.5819 26.7547C18.5411 26.7296 18.5017 26.7023 18.4639 26.6729L28.5074 17.0017L32.0217 20.3798Z" fill="#F15A2B"/>
</g>
<path d="M48.0242 11.8801H45.2162V13.0001H46.7122C46.5122 13.5361 46.0242 13.8641 45.2802 13.8641C44.1922 13.8641 43.5202 13.1681 43.5202 12.2161C43.5202 11.2321 44.2242 10.5361 45.1682 10.5361C45.8002 10.5361 46.3042 10.8241 46.5362 11.1921L47.6242 10.5681C47.1522 9.81609 46.2482 9.28809 45.1762 9.28809C43.5282 9.28809 42.2402 10.5841 42.2402 12.2081C42.2402 13.8161 43.5042 15.1121 45.2642 15.1121C46.8322 15.1121 48.0242 14.0721 48.0242 12.3601V11.8801Z" fill="white"/>
<path d="M49.6259 13.7681V12.7761H51.6259V11.5601H49.6259V10.6321H51.8259V9.40009H48.3459V15.0001H51.8659V13.7681H49.6259Z" fill="white"/>
<path d="M55.948 9.40009H51.788V10.6321H53.228V15.0001H54.508V10.6321H55.948V9.40009Z" fill="white"/>
<path d="M57.7084 9.40009V15.0001H58.9884V9.40009H57.7084Z" fill="white"/>
<path d="M63.3105 9.40009H59.1505V10.6321H60.5905V15.0001H61.8705V10.6321H63.3105V9.40009Z" fill="white"/>
<path d="M67.7429 15.1121C69.3509 15.1121 70.6549 13.8481 70.6549 12.2001C70.6549 10.5521 69.3509 9.28809 67.7429 9.28809C66.1349 9.28809 64.8309 10.5521 64.8309 12.2001C64.8309 13.8481 66.1349 15.1121 67.7429 15.1121ZM67.7429 13.8641C66.8309 13.8641 66.1109 13.2001 66.1109 12.2001C66.1109 11.2001 66.8309 10.5361 67.7429 10.5361C68.6549 10.5361 69.3749 11.2001 69.3749 12.2001C69.3749 13.2001 68.6549 13.8641 67.7429 13.8641Z" fill="white"/>
<path d="M74.0955 9.40009V12.4401L71.9355 9.40009H70.9755V15.0001H72.2555V11.9601L74.4155 15.0001H75.3755V9.40009H74.0955Z" fill="white"/>
<path d="M48.0242 21.3921V21.6081C48.0242 22.3068 47.7762 22.8961 47.2802 23.3761C46.7842 23.8508 46.1309 24.0881 45.3202 24.0881C44.4669 24.0881 43.7629 23.8108 43.2082 23.2561C42.6536 22.6961 42.3762 22.0108 42.3762 21.2001C42.3762 20.3894 42.6509 19.7068 43.2002 19.1521C43.7496 18.5921 44.4456 18.3121 45.2882 18.3121C45.8002 18.3121 46.2696 18.4348 46.6962 18.6801C47.1282 18.9254 47.4616 19.2534 47.6962 19.6641L47.3202 19.8881C47.1336 19.5361 46.8562 19.2534 46.4882 19.0401C46.1256 18.8268 45.7256 18.7201 45.2882 18.7201C44.5629 18.7201 43.9656 18.9601 43.4962 19.4401C43.0322 19.9148 42.8002 20.5014 42.8002 21.2001C42.8002 21.8988 43.0349 22.4881 43.5042 22.9681C43.9736 23.4428 44.5789 23.6801 45.3202 23.6801C45.9762 23.6801 46.5069 23.5014 46.9122 23.1441C47.3176 22.7868 47.5442 22.3361 47.5922 21.7921H45.2162V21.3921H48.0242Z" fill="white"/>
<path d="M53.7029 23.2481C53.1429 23.8081 52.4602 24.0881 51.6549 24.0881C50.8495 24.0881 50.1669 23.8081 49.6069 23.2481C49.0469 22.6828 48.7669 22.0001 48.7669 21.2001C48.7669 20.4001 49.0469 19.7201 49.6069 19.1601C50.1669 18.5948 50.8495 18.3121 51.6549 18.3121C52.4602 18.3121 53.1429 18.5948 53.7029 19.1601C54.2629 19.7201 54.5429 20.4001 54.5429 21.2001C54.5429 22.0001 54.2629 22.6828 53.7029 23.2481ZM49.9029 22.9601C50.3829 23.4401 50.9669 23.6801 51.6549 23.6801C52.3429 23.6801 52.9242 23.4401 53.3989 22.9601C53.8789 22.4748 54.1189 21.8881 54.1189 21.2001C54.1189 20.5121 53.8789 19.9281 53.3989 19.4481C52.9242 18.9628 52.3429 18.7201 51.6549 18.7201C50.9669 18.7201 50.3829 18.9628 49.9029 19.4481C49.4282 19.9281 49.1909 20.5121 49.1909 21.2001C49.1909 21.8881 49.4282 22.4748 49.9029 22.9601Z" fill="white"/>
<path d="M60.2341 23.2481C59.6741 23.8081 58.9914 24.0881 58.1861 24.0881C57.3808 24.0881 56.6981 23.8081 56.1381 23.2481C55.5781 22.6828 55.2981 22.0001 55.2981 21.2001C55.2981 20.4001 55.5781 19.7201 56.1381 19.1601C56.6981 18.5948 57.3808 18.3121 58.1861 18.3121C58.9914 18.3121 59.6741 18.5948 60.2341 19.1601C60.7941 19.7201 61.0741 20.4001 61.0741 21.2001C61.0741 22.0001 60.7941 22.6828 60.2341 23.2481ZM56.4341 22.9601C56.9141 23.4401 57.4981 23.6801 58.1861 23.6801C58.8741 23.6801 59.4554 23.4401 59.9301 22.9601C60.4101 22.4748 60.6501 21.8881 60.6501 21.2001C60.6501 20.5121 60.4101 19.9281 59.9301 19.4481C59.4554 18.9628 58.8741 18.7201 58.1861 18.7201C57.4981 18.7201 56.9141 18.9628 56.4341 19.4481C55.9594 19.9281 55.7221 20.5121 55.7221 21.2001C55.7221 21.8881 55.9594 22.4748 56.4341 22.9601Z" fill="white"/>
<path d="M67.4774 21.3921V21.6081C67.4774 22.3068 67.2294 22.8961 66.7334 23.3761C66.2374 23.8508 65.584 24.0881 64.7734 24.0881C63.92 24.0881 63.216 23.8108 62.6614 23.2561C62.1067 22.6961 61.8294 22.0108 61.8294 21.2001C61.8294 20.3894 62.104 19.7068 62.6534 19.1521C63.2027 18.5921 63.8987 18.3121 64.7414 18.3121C65.2534 18.3121 65.7227 18.4348 66.1494 18.6801C66.5814 18.9254 66.9147 19.2534 67.1494 19.6641L66.7734 19.8881C66.5867 19.5361 66.3094 19.2534 65.9414 19.0401C65.5787 18.8268 65.1787 18.7201 64.7414 18.7201C64.016 18.7201 63.4187 18.9601 62.9494 19.4401C62.4854 19.9148 62.2534 20.5014 62.2534 21.2001C62.2534 21.8988 62.488 22.4881 62.9574 22.9681C63.4267 23.4428 64.032 23.6801 64.7734 23.6801C65.4294 23.6801 65.96 23.5014 66.3654 23.1441C66.7707 22.7868 66.9974 22.3361 67.0454 21.7921H64.6694V21.3921H67.4774Z" fill="white"/>
<path d="M68.964 23.6001H71.604V24.0001H68.54V18.4001H68.964V23.6001Z" fill="white"/>
<path d="M72.9093 23.6001H75.7093V24.0001H72.4853V18.4001H75.6693V18.8001H72.9093V20.9761H75.4693V21.3761H72.9093V23.6001Z" fill="white"/>
<path d="M80.7877 18.4001C81.2891 18.4001 81.7051 18.5654 82.0357 18.8961C82.3664 19.2268 82.5317 19.6401 82.5317 20.1361C82.5317 20.6321 82.3664 21.0454 82.0357 21.3761C81.7051 21.7014 81.2891 21.8641 80.7877 21.8641H79.3077V24.0001H78.8837V18.4001H80.7877ZM80.7877 21.4641C81.1717 21.4641 81.4864 21.3388 81.7317 21.0881C81.9824 20.8374 82.1077 20.5201 82.1077 20.1361C82.1077 19.7468 81.9824 19.4268 81.7317 19.1761C81.4864 18.9254 81.1717 18.8001 80.7877 18.8001H79.3077V21.4641H80.7877Z" fill="white"/>
<path d="M84.003 23.6001H86.643V24.0001H83.579V18.4001H84.003V23.6001Z" fill="white"/>
<path d="M91.4486 24.0001L90.9046 22.5761H88.0966L87.5526 24.0001H87.1046L89.2806 18.4001H89.7286L91.8966 24.0001H91.4486ZM88.2566 22.1761H90.7526L89.5046 18.9201L88.2566 22.1761Z" fill="white"/>
<path d="M95.8811 18.4001L93.8411 21.6961V24.0001H93.4171V21.6961L91.3771 18.4001H91.8571L93.6331 21.2881L95.4011 18.4001H95.8811Z" fill="white"/>
<defs>
<clipPath id="clip0_1722_668">
<rect width="20" height="20" fill="white" transform="translate(17 7)"/>
</clipPath>
</defs>
</svg>
