<svg width="36" height="36" viewBox="0 0 36 36" fill="none" xmlns="http://www.w3.org/2000/svg">
<circle cx="18" cy="18" r="18" fill="#F5F5F5"/>
<g clip-path="url(#clip0_1722_793)">
<path d="M24.6547 12.1508C24.2859 12.0429 15.2628 11.1445 12.094 15.4257C10.6905 17.3222 10.6695 19.9221 12.0236 23.1525C11.6801 23.8655 11.3794 24.6166 11.1343 25.4091C11.0598 25.6499 11.1946 25.9052 11.4351 25.9795C11.48 25.9934 11.5254 26 11.5702 26C11.7647 26 11.9453 25.8744 12.0055 25.6787C14.4207 17.8703 22.2697 14.0927 24.6766 13.1383C24.9108 13.0454 25.2239 12.3174 24.6547 12.1508Z" fill="#84829A"/>
<path d="M13.4717 24.1296C14.7781 24.6777 16.0843 24.9586 17.299 24.9586C18.3908 24.9586 19.409 24.7341 20.2864 24.2789C22.0522 23.3629 23.1313 21.6107 23.4068 19.2112C23.6876 16.7658 24.0371 15.234 24.3286 14.297C21.7333 15.4942 16.1685 18.5973 13.4717 24.1296Z" fill="#84829A"/>
</g>
<defs>
<clipPath id="clip0_1722_793">
<rect width="14" height="14" fill="white" transform="translate(11 12)"/>
</clipPath>
</defs>
</svg>
