<svg width="36" height="36" viewBox="0 0 36 36" fill="none" xmlns="http://www.w3.org/2000/svg">
<circle cx="18" cy="18" r="18" fill="#F5F5F5"/>
<g clip-path="url(#clip0_1722_807)">
<path d="M23.501 11C23.4233 11 23.3467 11.018 23.2773 11.0527L19.4883 12.9477L15.2039 11.0432C15.1969 11.0403 15.1889 11.0397 15.1814 11.0367C15.1621 11.0295 15.1424 11.0235 15.1224 11.0187C15.1025 11.0134 15.0823 11.0092 15.0619 11.0062C15.0213 11.0029 14.9805 11.0029 14.9399 11.0062C14.9195 11.0092 14.8993 11.0134 14.8794 11.0187C14.8594 11.0235 14.8397 11.0295 14.8204 11.0367C14.8129 11.0397 14.8049 11.0402 14.7979 11.0432L10.298 13.0432C10.1173 13.1234 10.0009 13.3026 10.001 13.5002V24.5C10.0011 24.6692 10.0866 24.8268 10.2285 24.919C10.3703 25.0114 10.5492 25.0257 10.7039 24.957L15.0009 23.047L19.2978 24.957C19.3053 24.96 19.3133 24.957 19.3208 24.9615C19.4419 25.0157 19.5808 25.0126 19.6993 24.953C19.7073 24.9496 19.7163 24.953 19.7243 24.9475L23.7242 22.9476C23.8937 22.8629 24.0008 22.6896 24.0007 22.5V11.5002C24.0009 11.2241 23.7771 11.0001 23.501 11ZM14.5009 22.1751L11.001 23.7305V13.8252L14.5009 12.2697V22.1751ZM19.0008 23.7305L15.5009 22.1751V12.2697L19.0008 13.8252V23.7305ZM23.0008 22.1911L20.0008 23.691V13.8092L23.0008 12.3092V22.1911Z" fill="#84829A"/>
</g>
<defs>
<clipPath id="clip0_1722_807">
<rect width="14" height="14" fill="white" transform="translate(10 11)"/>
</clipPath>
</defs>
</svg>
