<svg width="36" height="36" viewBox="0 0 36 36" fill="none" xmlns="http://www.w3.org/2000/svg">
<circle cx="18" cy="18" r="18" fill="#F5F5F5"/>
<path d="M23.3429 13.2425L17.0254 19.5833C16.953 19.5414 16.8768 19.5062 16.7979 19.4783L12.6271 18.0667C12.5009 18.0351 12.389 17.9622 12.309 17.8597C12.229 17.7572 12.1855 17.6309 12.1855 17.5008C12.1855 17.3708 12.229 17.2445 12.309 17.142C12.389 17.0395 12.5009 16.9666 12.6271 16.935L22.9754 13.2542C23.043 13.2312 23.114 13.2194 23.1854 13.2192C23.2388 13.2183 23.292 13.2262 23.3429 13.2425Z" fill="#84829A"/>
<path d="M23.7461 14.0241L20.0653 24.3841C20.0247 24.5049 19.9457 24.609 19.8404 24.6806C19.735 24.7522 19.6091 24.7874 19.4819 24.7808C19.3533 24.7867 19.2263 24.7498 19.1207 24.6759C19.0152 24.6021 18.9371 24.4954 18.8986 24.3725L17.5103 20.2016C17.4824 20.1227 17.4472 20.0465 17.4053 19.9741L23.7578 13.6566C23.7936 13.7772 23.7895 13.9061 23.7461 14.0241Z" fill="#84829A"/>
</svg>
