<svg width="168" height="154" viewBox="0 0 168 154" fill="none" xmlns="http://www.w3.org/2000/svg">
<g id="Group 51">
<path id="Rectangle 158" d="M47.8057 72.9999C47.8057 82.9411 55.8645 90.9999 65.8057 90.9999L92.8057 90.9999C95.5671 90.9999 97.8057 88.7614 97.8057 85.9999L97.8057 51.9999C97.8057 46.4771 93.3285 41.9999 87.8057 41.9999L52.8057 41.9999C50.0442 41.9999 47.8057 44.2385 47.8057 46.9999L47.8057 72.9999Z" fill="#FFF1DA"/>
<g id="plane">
<g id="Group">
<path id="Vector" d="M96.3899 86.9413C95.0316 87.2455 93.7086 87.8091 92.503 88.5965C89.3623 90.5978 87.535 93.4545 88.4219 94.9767C89.3088 96.4988 92.5739 96.1095 95.7147 94.1082C96.9365 93.3486 98.0218 92.3778 98.904 91.2558C99.3134 90.7137 99.3869 90.0383 99.0917 89.5334L97.9395 87.556C97.6463 87.0495 97.0382 86.8086 96.3899 86.9413Z" fill="#D5D6DB"/>
<path id="Vector_2" d="M88.5023 59.9482C87.5174 60.169 86.5579 60.5778 85.6837 61.1488C83.4068 62.5996 82.0811 64.671 82.7237 65.7738C83.3663 66.8766 85.7347 66.5941 88.0113 65.1434C88.8972 64.5924 89.6842 63.8881 90.324 63.0745C90.6204 62.6815 90.6736 62.1922 90.4596 61.8261L89.6253 60.3943C89.413 60.0272 88.9724 59.8521 88.5023 59.9482Z" fill="#D5D6DB"/>
<path id="Vector_3" d="M75.6879 61.0787C75.4686 61.0542 75.2348 61.1126 75.032 61.2421L69.6839 64.6503C69.2365 64.9346 69.0575 65.4819 69.2844 65.8731C69.3363 65.9627 69.4073 66.0393 69.4936 66.0983L82.6752 75.1832L100.509 63.8185L75.6879 61.0787Z" fill="#029BC5"/>
<path id="Vector_4" d="M132.065 59.794L83.5332 90.3461L54.8205 101.772L40.1773 104.682L38.5664 101.945L119.462 51.9985C121.872 50.5036 124.558 49.586 127.247 49.3389C128.424 49.237 129.587 49.2762 130.708 49.455C131.702 49.6057 132.645 49.8964 133.509 50.3185C134.473 50.7967 136.307 50.8519 136.902 51.8047C136.904 51.8032 138.306 56.1776 132.065 59.794V59.794Z" fill="#E1E6E9"/>
<path id="Vector_5" d="M84.1766 86.3036L63.1813 119.774C62.9191 120.244 63.0747 120.77 63.5286 120.949C63.8072 121.059 64.1481 121.016 64.4345 120.834L69.7785 117.444C70.8064 116.791 71.7165 115.963 72.4526 115.009L113.169 67.1404L84.1766 86.3036Z" fill="#029BC5"/>
<path id="Vector_6" d="M31.197 85.1861C30.8468 85.0664 30.43 85.1285 30.0781 85.3525L25.6607 88.1659C25.0587 88.549 24.8189 89.2854 25.1248 89.8111C25.183 89.911 25.2587 89.999 25.3495 90.0714L37.7262 99.9838L50.7392 91.8557L31.197 85.1861Z" fill="#029BC5"/>
<path id="Vector_7" d="M41.8748 101.771L35.2133 111.1C35.1156 111.234 35.1386 111.403 35.2646 111.476C35.3554 111.529 35.4794 111.519 35.5802 111.452L39.7084 108.836C39.7405 108.815 39.7695 108.79 39.7936 108.761L49.5271 96.9261L41.8748 101.771Z" fill="#029BC5"/>
<path id="Vector_8" d="M129.912 49.8572C128.757 49.6718 127.559 49.6322 126.347 49.7388C125.166 51.3899 124.411 53.2446 124.158 55.118C124.139 55.4943 124.442 55.7652 124.835 55.723C124.958 55.7098 125.079 55.6669 125.188 55.5981L132.796 50.7538C131.907 50.3152 130.935 50.0134 129.912 49.8572Z" fill="#029BC5"/>
<path id="Vector_9" d="M113.332 58.7654L118.299 55.6284L122.926 63.4974L117.959 66.6344L113.332 58.7654Z" fill="#D5D6DB"/>
<g id="Group_2">
<path id="Vector_10" d="M110.207 61.8776C109.609 62.2567 109.369 62.9855 109.673 63.5052L110.166 64.3472C110.489 64.8537 111.229 64.9427 111.817 64.546C112.377 64.1682 112.602 63.4816 112.332 62.9745L111.84 62.1325C111.536 61.6133 110.806 61.499 110.207 61.8776V61.8776Z" fill="#3A556A"/>
<path id="Vector_11" d="M105.743 64.65C105.145 65.0292 104.905 65.758 105.209 66.2777L105.702 67.1197C106.025 67.6261 106.765 67.7152 107.353 67.3185C107.913 66.9407 108.138 66.254 107.869 65.747L107.376 64.905C107.072 64.3859 106.342 64.2716 105.743 64.65V64.65Z" fill="#3A556A"/>
<path id="Vector_12" d="M101.277 67.4234C100.679 67.803 100.441 68.531 100.744 69.0502L101.237 69.8922C101.561 70.3986 102.3 70.4877 102.888 70.091C103.448 69.7132 103.673 69.0265 103.404 68.5195L102.911 67.6776C102.607 67.1579 101.876 67.0441 101.277 67.4234V67.4234Z" fill="#3A556A"/>
<path id="Vector_13" d="M96.8133 70.1957C96.2154 70.5754 95.977 71.3033 96.2806 71.8226L96.7729 72.6646C97.0968 73.171 97.8361 73.2601 98.4243 72.8634C98.9842 72.4856 99.2096 71.7989 98.9398 71.2919L98.4475 70.4499C98.1434 69.9304 97.4118 69.8166 96.8133 70.1957V70.1957Z" fill="#3A556A"/>
<path id="Vector_14" d="M92.3491 72.9684C91.7508 73.3482 91.5123 74.0765 91.8161 74.5959L92.3087 75.4383C92.6124 75.9576 93.3436 76.0713 93.942 75.6923C94.5404 75.3133 94.7793 74.5851 94.4756 74.0658L93.983 73.2235C93.6801 72.7038 92.9491 72.5893 92.3503 72.9676C92.3498 72.9679 92.3496 72.9681 92.3491 72.9684Z" fill="#3A556A"/>
<path id="Vector_15" d="M87.8842 75.7409C87.286 76.1207 87.0475 76.8489 87.3513 77.3684L87.8439 78.2107C88.1475 78.73 88.8788 78.8437 89.4772 78.4647C90.0755 78.0858 90.3144 77.3576 90.0108 76.8383L89.5182 75.996C89.2152 75.4762 88.4843 75.3617 87.8855 75.7401C87.885 75.7404 87.8845 75.7407 87.8842 75.7409Z" fill="#3A556A"/>
<path id="Vector_16" d="M83.4194 78.5134C82.8211 78.8932 82.5826 79.6214 82.8864 80.1409L83.379 80.9832C83.6834 81.502 84.415 81.6146 85.0128 81.2351C85.6095 80.8563 85.8479 80.1296 85.5456 79.611L85.053 78.7687C84.7495 78.249 84.0182 78.1347 83.4194 78.5134Z" fill="#3A556A"/>
<path id="Vector_17" d="M78.9555 81.2859C78.3573 81.6657 78.1188 82.3939 78.4225 82.9134L78.9151 83.7558C79.2196 84.2746 79.9512 84.3871 80.5489 84.0076C81.1456 83.6288 81.384 82.9021 81.0817 82.3835L80.5891 81.5411C80.2856 81.0215 79.5544 80.9072 78.9555 81.2859Z" fill="#3A556A"/>
<path id="Vector_18" d="M74.4907 84.0583C73.8924 84.4381 73.6539 85.1664 73.9577 85.6858L74.4503 86.5281C74.7547 87.0469 75.4863 87.1595 76.084 86.78C76.6808 86.4012 76.9192 85.6745 76.6169 85.1559L76.1243 84.3136C75.8205 83.7941 75.0893 83.6798 74.4907 84.0583Z" fill="#3A556A"/>
<path id="Vector_19" d="M70.0248 86.8316C69.4265 87.2106 69.1876 87.9387 69.4912 88.458L69.4919 88.4591L69.9845 89.3014C70.2889 89.8202 71.0205 89.9328 71.6182 89.5533C72.2149 89.1745 72.4533 88.4478 72.1511 87.9292L71.6585 87.0868C71.3549 86.5672 70.6237 86.4529 70.0248 86.8316Z" fill="#3A556A"/>
<path id="Vector_20" d="M65.562 89.6033C64.9636 89.9822 64.7247 90.7104 65.0284 91.2297L65.029 91.2308L65.5216 92.0731C65.826 92.5918 66.5576 92.7044 67.1554 92.3249C67.7521 91.9461 67.9905 91.2195 67.6882 90.7008L67.1956 89.8585C66.8918 89.339 66.1606 89.2247 65.562 89.6033Z" fill="#3A556A"/>
</g>
</g>
</g>
</g>
</svg>
